PathFileType	4	(X/Y/Z)	 s02c0102.trc
DataRate	CameraRate	NumFrames	NumMarkers	Units	OrigDataRate	OrigDataStartFrame	OrigNumFrames
200	200	4	51	mm	200	251	2000
Frame#	Time	racr			lacr			c7			jug			rlel			rdr			llel			ldr			s2			lic			ric			lasi			rasi			rpsi			lpsi			rgt			lgt			rth1			rth2			rth3			rth4			rlfc			rmfc			rsh1			rsh2			rsh3			rsh4			rlmal			rmmal			rcal			rtoe			rmt5			rmt1			lth1			lth2			lth4			lth3			llfc			lmfc			lsh1			lsh2			lsh3			lsh4			llmal			lmmal			lcal			ltoe			lmt5			SBIKE			LBIKE			RBIKE			
		X1	Y1	Z1	X2	Y2	Z2	X3	Y3	Z3	X4	Y4	Z4	X5	Y5	Z5	X6	Y6	Z6	X7	Y7	Z7	X8	Y8	Z8	X9	Y9	Z9	X10	Y10	Z10	X11	Y11	Z11	X12	Y12	Z12	X13	Y13	Z13	X14	Y14	Z14	X15	Y15	Z15	X16	Y16	Z16	X17	Y17	Z17	X18	Y18	Z18	X19	Y19	Z19	X20	Y20	Z20	X21	Y21	Z21	X22	Y22	Z22	X23	Y23	Z23	X24	Y24	Z24	X25	Y25	Z25	X26	Y26	Z26	X27	Y27	Z27	X28	Y28	Z28	X29	Y29	Z29	X30	Y30	Z30	X31	Y31	Z31	X32	Y32	Z32	X33	Y33	Z33	X34	Y34	Z34	X35	Y35	Z35	X36	Y36	Z36	X37	Y37	Z37	X38	Y38	Z38	X39	Y39	Z39	X40	Y40	Z40	X41	Y41	Z41	X42	Y42	Z42	X43	Y43	Z43	X44	Y44	Z44	X45	Y45	Z45	X46	Y46	Z46	X47	Y47	Z47	X48	Y48	Z48	X49	Y49	Z49	X50	Y50	Z50	X51	Y51	Z51	
251	1.2550	509.143683	1251.411085	-106.821970	522.566666	1256.888663	-464.332775	541.291717	1284.638637	-292.586007	474.890339	1164.606806	-289.277262	550.017052	986.376303	-59.890868	725.267316	856.597843	-114.864876	535.924135	986.815970	-543.026042	713.045452	843.548267	-485.790854	12.820330	1113.419532	-311.940276	159.894050	1102.616135	-449.742727	141.054374	1108.714179	-167.937418	199.773095	1062.079452	-427.286106	196.824821	1082.911558	-196.697898	41.713699	1158.204103	-270.055692	55.009305	1169.263660	-352.784565	115.312308	1040.808603	-123.628940	93.318417	1014.772113	-488.607445	199.164466	1020.012005	-127.441824	286.374149	1012.476401	-135.977364	358.335293	970.819886	-114.920861	295.641803	1036.514850	-164.116835	480.233621	885.733809	-149.391250	471.875096	866.012298	-262.013783	463.679213	775.014592	-131.857244	442.923908	689.553848	-149.985331	390.385180	622.219306	-140.349681	454.948917	685.755378	-187.237628	329.250505	519.426457	-142.650280	333.735221	539.281073	-223.106190	250.579783	473.261244	-181.493029	535.610670	453.864928	-190.115116	429.288218	442.588692	-126.556998	451.761595	455.293125	-237.065551	193.610342	908.934123	-504.791235	258.526753	850.776522	-501.049453	285.887243	868.915749	-484.347479	284.705268	765.660693	-501.631226	335.222394	679.058761	-477.226452	333.972253	650.053793	-375.159903	290.216786	585.587176	-498.981773	261.550592	505.608731	-482.325330	195.000991	445.064605	-488.132411	277.174281	498.584387	-445.132025	122.559840	368.610558	-473.446743	138.026968	358.491210	-396.894685	43.900222	358.095623	-434.875819	272.038092	184.362193	-437.143489	172.799207	225.500447	-498.564658	-162.549796	860.113824	-310.355553	37.456237	86.387314	-514.253548	34.080777	83.032593	-114.126027	
252	1.2600	509.599204	1251.780690	-106.743217	523.998657	1257.098226	-462.888439	541.379102	1284.188054	-292.190849	474.971688	1164.153280	-288.920961	548.362262	985.875773	-59.315793	725.281241	857.919495	-113.975468	536.337554	987.081447	-543.409064	713.084462	843.580885	-485.987514	12.739343	1113.635076	-312.152913	159.816863	1102.759106	-449.918257	140.744206	1109.147227	-167.939574	199.698672	1062.234783	-427.410558	196.432782	1083.242428	-196.789455	41.593106	1158.615596	-270.326550	54.870423	1169.594088	-352.966465	115.105258	1041.058715	-123.887401	93.367714	1014.865759	-488.608453	199.195649	1019.751975	-127.411836	286.235745	1011.602582	-136.434093	358.276397	970.164520	-114.467517	295.795909	1036.135071	-163.853076	479.672328	884.527127	-149.658168	471.034646	865.005381	-262.156580	463.250100	773.742738	-132.070547	442.322609	688.139158	-150.534448	389.926092	620.959444	-140.631042	453.660685	684.611772	-187.892701	328.485128	518.382651	-142.829025	332.799054	537.994208	-223.229450	249.863092	471.803141	-181.364037	535.257976	454.379537	-190.016725	428.909502	442.429781	-126.417845	451.441876	455.291443	-236.887521	193.768088	909.186016	-504.730771	258.768455	851.178889	-501.055434	286.124955	869.271756	-484.344886	285.050196	766.030492	-501.658266	335.706322	679.468210	-477.120741	334.313010	650.504588	-374.956879	290.859303	586.013047	-498.925526	262.182109	505.982546	-482.241419	195.612689	445.406189	-488.185185	277.608763	498.993548	-444.971801	123.054234	368.916729	-473.593491	138.492474	358.801106	-397.013526	44.456491	358.670918	-434.916329	271.928092	184.154800	-437.168455	172.835142	225.578568	-498.571584	-162.582141	859.478518	-312.564977	37.451435	86.390782	-514.249840	34.093444	83.026931	-114.128604	
253	1.2650	510.097442	1252.132126	-106.612104	525.511587	1257.164360	-461.582563	541.484079	1283.766776	-291.843855	475.108599	1163.668631	-288.389981	546.928103	985.499629	-58.961934	725.363708	859.400234	-113.054369	536.785150	987.316763	-543.789057	713.181257	843.597695	-486.168489	12.640266	1113.810829	-312.353008	159.758502	1102.915424	-450.126585	140.402279	1109.607541	-167.978942	199.637688	1062.435070	-427.501859	196.090833	1083.647489	-196.823729	41.446008	1158.996483	-270.567863	54.760945	1170.040938	-353.194778	114.878665	1041.355394	-124.100963	93.443151	1014.990563	-488.618753	199.215689	1019.332023	-127.731175	286.091205	1010.910334	-136.625557	357.836490	968.851763	-115.233852	295.861903	1035.696362	-163.729799	478.963119	883.262111	-149.922675	470.226963	863.757645	-262.437806	462.730356	772.418138	-132.352069	441.697564	686.903153	-150.964387	389.253375	619.687964	-140.889408	452.971354	683.357575	-188.208461	327.634585	517.169989	-142.956574	331.786907	536.852110	-223.386556	249.454573	470.046956	-181.212252	534.941058	454.913074	-189.922641	428.569967	442.155552	-126.341754	451.122863	455.178887	-236.946998	193.988708	909.495956	-504.694196	259.041651	851.565770	-501.061064	286.409222	869.691239	-484.314620	285.442454	766.468473	-501.699945	336.193132	679.909878	-477.021814	334.704449	650.906964	-374.801711	291.552701	586.432841	-498.888227	262.728960	506.404367	-482.117549	196.246993	445.805638	-488.178910	278.333569	499.246962	-445.183061	123.652419	369.295645	-473.744810	138.996766	359.147470	-397.123527	45.099271	359.397312	-435.021964	271.734897	183.843752	-437.112869	172.869208	225.732856	-498.569462	-162.528231	859.578893	-312.157947	37.466627	86.394465	-514.254789	34.078412	83.020455	-114.120329	
254	1.2700	510.589354	1252.473669	-106.441969	527.035405	1257.186498	-460.139156	541.562249	1283.352303	-291.462501	475.271327	1163.121007	-287.774871	545.811563	985.340496	-58.851430	725.272228	860.235124	-112.536055	537.331954	987.520335	-544.160931	713.291368	843.548665	-486.368129	12.550678	1113.996134	-312.598876	159.731996	1103.033464	-450.336552	140.066193	1110.062431	-167.992458	199.584450	1062.674482	-427.541382	195.754046	1084.002401	-196.818489	41.304375	1159.366480	-270.824683	54.704110	1170.439854	-353.488172	114.606196	1041.651869	-124.290921	93.516042	1015.113657	-488.630480	199.124078	1019.117126	-127.760743	285.839915	1010.230451	-136.683467	357.527436	967.964246	-115.367007	295.844414	1035.303141	-163.608277	478.248433	881.895602	-150.060157	469.301376	862.683435	-262.566926	462.073579	771.007551	-132.587190	441.019732	685.499318	-151.370019	388.720439	618.318992	-141.217889	452.130703	682.161209	-188.688521	327.015607	515.890172	-143.062266	331.020908	535.356719	-223.608172	249.384597	467.699521	-182.055376	534.630942	455.391077	-189.834438	428.366239	441.777420	-126.316850	450.857453	455.066099	-236.953605	194.231601	909.826710	-504.634287	259.357881	851.988682	-501.071211	286.697436	870.145304	-484.323687	285.926451	766.957215	-501.796472	336.774442	680.488672	-476.875995	335.176199	651.168278	-374.722139	292.208541	586.924200	-498.798561	263.417312	506.918427	-482.138330	196.889174	446.325325	-488.176353	278.945447	499.779660	-445.138995	124.206908	369.696543	-473.858734	139.530983	359.584644	-397.232279	45.638662	360.126788	-435.068027	271.600017	183.628823	-437.155711	172.881055	225.900668	-498.569919	-162.553097	860.257332	-310.073498	37.458649	86.408107	-514.255470	34.078958	83.033132	-114.104522	
